<?xml version="1.0" encoding="UTF-8" standalone="no"?>
<!-- Created with Inkscape (http://www.inkscape.org/) -->

<svg
   xmlns:dc="http://purl.org/dc/elements/1.1/"
   xmlns:cc="http://creativecommons.org/ns#"
   xmlns:rdf="http://www.w3.org/1999/02/22-rdf-syntax-ns#"
   xmlns:svg="http://www.w3.org/2000/svg"
   xmlns="http://www.w3.org/2000/svg"
   xmlns:sodipodi="http://sodipodi.sourceforge.net/DTD/sodipodi-0.dtd"
   xmlns:inkscape="http://www.inkscape.org/namespaces/inkscape"
   width="71.966667mm"
   height="15.157157mm"
   viewBox="0 0 71.966667 15.157156"
   version="1.1"
   id="svg1496"
   inkscape:version="0.92.4 (5da689c313, 2019-01-14)"
   sodipodi:docname="loadout.svg">
  <defs
     id="defs1490" />
  <sodipodi:namedview
     id="base"
     pagecolor="#ffffff"
     bordercolor="#666666"
     borderopacity="1.0"
     inkscape:pageopacity="0.0"
     inkscape:pageshadow="2"
     inkscape:zoom="2.8284271"
     inkscape:cx="172.36695"
     inkscape:cy="77.311167"
     inkscape:document-units="mm"
     inkscape:current-layer="layer1"
     showgrid="true"
     inkscape:snap-grids="true"
     inkscape:window-width="1920"
     inkscape:window-height="1137"
     inkscape:window-x="-8"
     inkscape:window-y="-8"
     inkscape:window-maximized="1">
    <inkscape:grid
       type="xygrid"
       id="grid2049"
       originx="32.279167"
       originy="5.8208341" />
  </sodipodi:namedview>
  <metadata
     id="metadata1493">
    <rdf:RDF>
      <cc:Work
         rdf:about="">
        <dc:format>image/svg+xml</dc:format>
        <dc:type
           rdf:resource="http://purl.org/dc/dcmitype/StillImage" />
        <dc:title></dc:title>
      </cc:Work>
    </rdf:RDF>
  </metadata>
  <g
     inkscape:label="Layer 1"
     inkscape:groupmode="layer"
     id="layer1"
     transform="translate(3.1553271,-29.147744)">
    <rect
       style="color:#000000;clip-rule:nonzero;display:inline;overflow:visible;visibility:visible;opacity:1;isolation:auto;mix-blend-mode:normal;color-interpolation:sRGB;color-interpolation-filters:linearRGB;solid-color:#000000;solid-opacity:1;vector-effect:none;fill:#000000;fill-opacity:0.33333334;fill-rule:evenodd;stroke:none;stroke-width:0.39877969;stroke-linecap:butt;stroke-linejoin:bevel;stroke-miterlimit:4;stroke-dasharray:none;stroke-dashoffset:0;stroke-opacity:1;color-rendering:auto;image-rendering:auto;shape-rendering:auto;text-rendering:auto;enable-background:accumulate"
       id="rect2085"
       width="71.966667"
       height="15.081251"
       x="-3.1553271"
       y="29.22365" />
    <path
       inkscape:connector-curvature="0"
       style="color:#000000;font-style:normal;font-variant:normal;font-weight:normal;font-stretch:normal;font-size:medium;line-height:normal;font-family:sans-serif;font-variant-ligatures:normal;font-variant-position:normal;font-variant-caps:normal;font-variant-numeric:normal;font-variant-alternates:normal;font-feature-settings:normal;text-indent:0;text-align:start;text-decoration:none;text-decoration-line:none;text-decoration-style:solid;text-decoration-color:#000000;letter-spacing:normal;word-spacing:normal;text-transform:none;writing-mode:lr-tb;direction:ltr;text-orientation:mixed;dominant-baseline:auto;baseline-shift:baseline;text-anchor:start;white-space:normal;shape-padding:0;clip-rule:nonzero;display:inline;overflow:visible;visibility:visible;opacity:1;isolation:auto;mix-blend-mode:normal;color-interpolation:sRGB;color-interpolation-filters:linearRGB;solid-color:#000000;solid-opacity:1;vector-effect:none;fill:#ff00ff;fill-opacity:1;fill-rule:evenodd;stroke:none;stroke-width:1.85208333;stroke-linecap:butt;stroke-linejoin:bevel;stroke-miterlimit:4;stroke-dasharray:none;stroke-dashoffset:0;stroke-opacity:1;color-rendering:auto;image-rendering:auto;shape-rendering:auto;text-rendering:auto;enable-background:accumulate"
       d="m 84.782972,55.264442 -1.308447,1.30845 1.322398,1.3224 1.308447,-1.30845 z m 12.240591,0 -2.80706,2.80448 -0.269232,0.65629 v 7.01198 H 89.18322 v 1.32239 h 6.086449 v -7.01197 l 0.271301,-0.65422 2.806553,-2.80655 z m -71.86796,2.53525 v 8.86302 l 1.3224,1.3224 v -8.86303 h 1.85105 l -1.32188,-1.32239 z m 12.83177,0 -0.92552,0.92552 v 7.9375 c 0.44056,0.44096 0.88151,0.88175 1.3224,1.3224 v -7.9375 l 0.925525,-0.92553 h 7.9375 c -0.440484,-0.44104 -0.881512,-0.88175 -1.322401,-1.32239 z m 23.812504,0 -0.925523,0.92552 v 7.9375 l 1.322398,1.3224 v -7.9375 l 0.925526,-0.92553 h 7.938016 l 0.871265,0.61495 -1.322398,-1.32394 -0.872816,-0.6134 z m 13.229167,0 -0.925523,0.92552 v 7.9375 c 0.440568,0.44097 0.880991,0.88176 1.321882,1.3224 l 5.29e-4,-7.9375 0.925512,-0.92553 h 7.9375 c -0.440481,-0.44105 -0.881509,-0.88175 -1.3224,-1.32239 z m 22.886979,0 v 1.85156 l 1.3224,1.3224 v -1.85157 h 9.788547 l -1.32189,-1.32239 z m -44.629837,0.0527 -3.704683,1.32239 -0.613399,0.87282 v 7.54114 l 1.322398,1.3224 v -7.54114 l 0.61495,-0.87126 2.966744,-1.06092 0.736391,-0.26304 0.576191,1.61489 0.576191,-1.61489 3.703135,1.32396 -1.322401,-1.32396 -3.703132,-1.32239 -0.303342,0.84904 z m 32.723585,1.25573 v 7.55458 l 1.322398,1.3224 v -7.55458 z m -41.010417,1.86552 v 4.76354 h -4.76405 v 1.32239 h 6.086448 v -6.08593 z m 24.556641,0 0.613915,1.72031 -1.086239,3.04323 h -5.035867 v 1.32239 h 6.360334 l 1.084173,-3.04322 -1.084173,-3.04271 z m 12.485026,0 v 4.76354 H 77.27697 v 1.32239 h 6.086449 v -6.08593 z m 19.843749,0 v 6.6151 l 1.3224,1.3224 v -7.9375 z m -44.979166,0.57774 v 1.53944 h -4.76405 v 1.32189 h 6.086448 v -2.39055 z m 15.500345,2.1916 -0.765329,0.27337 1.61489,0.57619 z m -44.076896,1.9942 v 1.32239 h 7.9375 l -1.32188,-1.32239 z m 28.576551,0.52709 v 1.32447 l 1.322398,1.3224 v -2.64687 z"
       id="path1969-2-3-6-7" />
    <path
       inkscape:connector-curvature="0"
       style="color:#000000;font-style:normal;font-variant:normal;font-weight:normal;font-stretch:normal;font-size:medium;line-height:normal;font-family:sans-serif;font-variant-ligatures:normal;font-variant-position:normal;font-variant-caps:normal;font-variant-numeric:normal;font-variant-alternates:normal;font-feature-settings:normal;text-indent:0;text-align:start;text-decoration:none;text-decoration-line:none;text-decoration-style:solid;text-decoration-color:#000000;letter-spacing:normal;word-spacing:normal;text-transform:none;writing-mode:lr-tb;direction:ltr;text-orientation:mixed;dominant-baseline:auto;baseline-shift:baseline;text-anchor:start;white-space:normal;shape-padding:0;clip-rule:nonzero;display:inline;overflow:visible;visibility:visible;opacity:1;isolation:auto;mix-blend-mode:normal;color-interpolation:sRGB;color-interpolation-filters:linearRGB;solid-color:#000000;solid-opacity:1;vector-effect:none;fill:#000000;fill-opacity:1;fill-rule:evenodd;stroke:none;stroke-width:1.85208333;stroke-linecap:butt;stroke-linejoin:bevel;stroke-miterlimit:4;stroke-dasharray:none;stroke-dashoffset:0;stroke-opacity:1;color-rendering:auto;image-rendering:auto;shape-rendering:auto;text-rendering:auto;enable-background:accumulate"
       d="m 86.10537,56.586842 -1.308447,1.30845 2.535246,2.53524 v 7.55458 l 0.925525,0.92604 h 7.937499 l 0.92604,-0.92604 v -7.55458 l 2.53473,-2.53524 -1.30844,-1.30845 -2.806553,2.80655 -0.271301,0.65422 v 7.01197 h -6.085933 v -7.01197 l -0.271817,-0.65422 z m -59.627367,2.53524 v 8.86303 l 0.92552,0.92604 h 8.86303 v -1.85157 h -7.9375 v -7.9375 z m 12.831775,0 -0.925525,0.92553 v 7.9375 l 0.925525,0.92604 h 7.9375 l 0.925526,-0.92604 v -7.9375 l -0.925526,-0.92553 z m 23.8125,0 -0.925526,0.92553 v 7.9375 l 0.925526,0.92604 h 7.938016 l 0.871265,-0.61546 1.323951,-3.70314 -1.61489,-0.57619 1.61489,-0.57619 -1.323951,-3.70314 -0.871265,-0.61495 z m 13.229166,0 -0.926041,0.92553 v 7.9375 l 0.926041,0.92604 h 7.9375 l 0.925526,-0.92604 v -7.9375 l -0.925526,-0.92553 z m 22.886979,0 v 1.85157 h 3.968747 v 7.9375 h 1.85105 v -7.9375 h 3.96875 v -1.85157 z m -44.629836,0.0527 -3.703135,1.32396 -0.61495,0.87126 v 3.96875 2.64635 0.92604 h 1.851052 v -0.92604 -1.72083 h 6.086448 v 1.72083 0.92604 h 1.851052 v -0.92604 -2.64635 -3.96875 l -0.61495,-0.87126 -3.703135,-1.32396 -0.576191,1.61489 z m 0.576191,1.76372 3.043224,1.08366 v 2.39055 h -6.086448 v -2.39055 z m -14.949474,0.0351 h 6.086448 v 6.08593 h -6.086448 z m 23.8125,0 h 6.360334 l 1.084173,3.04271 -1.084173,3.04322 h -6.360334 z m 13.229166,0 h 6.085933 v 6.08593 H 77.27697 Z"
       id="path1969-2-3-6-4" />
    <rect
       style="color:#000000;clip-rule:nonzero;display:inline;overflow:visible;visibility:visible;opacity:1;isolation:auto;mix-blend-mode:normal;color-interpolation:sRGB;color-interpolation-filters:linearRGB;solid-color:#000000;solid-opacity:1;vector-effect:none;fill:#808080;fill-opacity:1;fill-rule:evenodd;stroke:#f7ffff;stroke-width:0.52916664;stroke-linecap:butt;stroke-linejoin:bevel;stroke-miterlimit:4;stroke-dasharray:none;stroke-dashoffset:0;stroke-opacity:1;color-rendering:auto;image-rendering:auto;shape-rendering:auto;text-rendering:auto;enable-background:accumulate"
       id="rect2085-0"
       width="103.1875"
       height="18.520834"
       x="23.832172"
       y="-46.182598" />
    <path
       inkscape:connector-curvature="0"
       style="color:#000000;font-style:normal;font-variant:normal;font-weight:normal;font-stretch:normal;font-size:medium;line-height:normal;font-family:sans-serif;font-variant-ligatures:normal;font-variant-position:normal;font-variant-caps:normal;font-variant-numeric:normal;font-variant-alternates:normal;font-feature-settings:normal;text-indent:0;text-align:start;text-decoration:none;text-decoration-line:none;text-decoration-style:solid;text-decoration-color:#000000;letter-spacing:normal;word-spacing:normal;text-transform:none;writing-mode:lr-tb;direction:ltr;text-orientation:mixed;dominant-baseline:auto;baseline-shift:baseline;text-anchor:start;white-space:normal;shape-padding:0;clip-rule:nonzero;display:inline;overflow:visible;visibility:visible;opacity:1;isolation:auto;mix-blend-mode:normal;color-interpolation:sRGB;color-interpolation-filters:linearRGB;solid-color:#000000;solid-opacity:1;vector-effect:none;fill:#000000;fill-opacity:1;fill-rule:evenodd;stroke:#ffffff;stroke-width:1.05833328;stroke-linecap:butt;stroke-linejoin:bevel;stroke-miterlimit:4;stroke-dasharray:none;stroke-dashoffset:0;stroke-opacity:1;paint-order:markers stroke fill;color-rendering:auto;image-rendering:auto;shape-rendering:auto;text-rendering:auto;enable-background:accumulate"
       d="m 94.62165,-22.787644 -1.308446,1.308447 1.322398,1.3224 1.212847,1.212846 v 7.554578 l 1.322398,1.322399 0.92553,0.9260422 h 7.937503 l 0.92604,-0.9260422 v -7.554577 l 0.79478,-0.794784 v 0.0155 l 1.3224,1.3224 h 2.64635 v 6.6151 l 1.3224,1.3224002 h 1.85105 v -7.9375002 h 3.96875 v -1.851567 l -1.32188,-1.322399 h -8.14472 l -1.21285,-1.212846 -1.32395,-1.3224 -2.80707,2.80448 -0.26923,0.65629 v 7.011976 h -4.763533 v -5.689576 l -0.27182,-0.654223 -2.806549,-2.806547 z m -59.627369,2.535246 v 8.863025 l 1.3224,1.322399 0.925525,0.9260422 h 8.863024 v -1.8515662 l -1.321883,-1.3224 H 38.16773 v -6.6151 l -1.321883,-1.3224 z m 12.831775,0 -0.925525,0.925525 v 7.9375 c 0.44056,0.440959 0.88151,0.881749 1.3224,1.322399 l 0.925525,0.9260422 h 7.9375 l 0.925523,-0.9260422 v -7.9375 l -0.925523,-0.925524 c -0.440483,-0.441041 -0.881512,-0.88176 -1.3224,-1.3224 z m 23.8125,0 -0.925524,0.925525 v 7.9375 l 1.322399,1.322399 0.925525,0.9260422 h 7.938016 l 0.871265,-0.615466 1.323951,-3.7031332 -0.849561,-0.849561 0.849561,-0.302824 -1.323951,-3.703133 -1.322398,-1.32395 -0.872815,-0.613399 z m 13.229166,0 -0.925523,0.925525 v 7.9375 c 0.440568,0.440969 0.880991,0.881759 1.321882,1.322399 l 0.926042,0.9260422 h 7.9375 l 0.925526,-0.9260422 v -7.9375 l -0.925526,-0.925524 c -0.440481,-0.441051 -0.88151,-0.88176 -1.322401,-1.3224 z m -21.742857,0.05271 -3.704683,1.3224 -0.6134,0.872814 v 7.541142 l 1.322399,1.3224002 h 1.851051 v -0.9260422 -1.720825 h 4.76405 v 1.324467 l 1.322399,1.3224002 h 1.851051 v -0.9260422 -2.64635 -3.96875 l -0.61495,-0.871264 -1.322401,-1.32395 -3.703132,-1.3224 -0.303342,0.849043 z m 1.898591,3.086116 1.720826,0.612883 v 1.539441 h -4.76405 v -1.068669 z m -14.949476,0.03514 h 4.76405 v 4.763534 h -4.76405 z m 23.812502,0 h 5.508191 l 0.613915,1.720309 -1.086238,3.043225 h -5.035868 z m 13.229167,0 h 4.76405 v 4.763534 h -4.76405 z"
       id="path1969-2-3-6-7-5-4" />
    <path
       inkscape:connector-curvature="0"
       style="color:#000000;font-style:normal;font-variant:normal;font-weight:normal;font-stretch:normal;font-size:medium;line-height:normal;font-family:sans-serif;font-variant-ligatures:normal;font-variant-position:normal;font-variant-caps:normal;font-variant-numeric:normal;font-variant-alternates:normal;font-feature-settings:normal;text-indent:0;text-align:start;text-decoration:none;text-decoration-line:none;text-decoration-style:solid;text-decoration-color:#000000;letter-spacing:normal;word-spacing:normal;text-transform:none;writing-mode:lr-tb;direction:ltr;text-orientation:mixed;dominant-baseline:auto;baseline-shift:baseline;text-anchor:start;white-space:normal;shape-padding:0;clip-rule:nonzero;display:inline;overflow:visible;visibility:visible;opacity:1;isolation:auto;mix-blend-mode:normal;color-interpolation:sRGB;color-interpolation-filters:linearRGB;solid-color:#000000;solid-opacity:1;vector-effect:none;fill:#ffffff;fill-opacity:1;fill-rule:evenodd;stroke:#000000;stroke-width:0.52916676;stroke-linecap:butt;stroke-linejoin:bevel;stroke-miterlimit:4;stroke-dasharray:none;stroke-dashoffset:0;stroke-opacity:1;paint-order:markers stroke fill;color-rendering:auto;image-rendering:auto;shape-rendering:auto;text-rendering:auto;enable-background:accumulate"
       d="m 95.943532,-21.46524 -1.308446,1.30845 2.535245,2.53524 v 7.55458 l 0.925526,0.9260402 h 7.937493 l 0.92605,-0.9260402 v -7.55458 l 2.53472,-2.53524 -1.30844,-1.30845 -2.80655,2.80655 -0.2713,0.65422 v 7.01197 h -6.085933 v -7.01197 l -0.27182,-0.65422 z M 36.316163,-18.93 v 8.86303 l 0.92552,0.9260402 h 8.86303 V -10.9925 h -7.9375 V -18.93 Z m 12.831775,0 -0.925525,0.92553 v 7.9375 l 0.925525,0.9260402 h 7.9375 l 0.925525,-0.9260402 v -7.9375 L 57.085438,-18.93 Z m 23.812502,0 -0.925525,0.92553 v 7.9375 l 0.925525,0.9260402 h 7.938016 l 0.871265,-0.61546 1.323951,-3.7031402 -1.614889,-0.57619 1.614889,-0.57619 -1.323951,-3.70314 -0.871265,-0.61495 z m 13.229164,0 -0.926039,0.92553 v 7.9375 l 0.926039,0.9260402 h 7.9375 l 0.925529,-0.9260402 v -7.9375 L 94.127104,-18.93 Z m 22.886976,0 v 1.85157 h 3.96875 v 7.9375002 h 1.85105 V -17.07843 h 3.96875 V -18.93 Z m -44.629831,0.0527 -3.703137,1.32396 -0.61495,0.87126 v 3.96875 2.64635 0.9260402 h 1.851051 v -0.9260402 -1.72083 h 6.086452 v 1.72083 0.9260402 h 1.851048 v -0.9260402 -2.64635 -3.96875 l -0.614947,-0.87126 -3.703135,-1.32396 -0.576191,1.61489 z m 0.576191,1.76372 3.043225,1.08366 v 2.39055 h -6.086452 v -2.39055 z m -14.949476,0.0351 h 6.086448 v 6.08593 h -6.086448 z m 23.812499,0 h 6.360338 l 1.084172,3.04271 -1.084172,3.04322 h -6.360338 z m 13.22917,0 h 6.085932 v 6.08593 h -6.085932 z"
       id="path1969-2-3-6-4-4-9" />
    <path
       inkscape:connector-curvature="0"
       style="color:#000000;font-style:normal;font-variant:normal;font-weight:normal;font-stretch:normal;font-size:medium;line-height:normal;font-family:sans-serif;font-variant-ligatures:normal;font-variant-position:normal;font-variant-caps:normal;font-variant-numeric:normal;font-variant-alternates:normal;font-feature-settings:normal;text-indent:0;text-align:start;text-decoration:none;text-decoration-line:none;text-decoration-style:solid;text-decoration-color:#000000;letter-spacing:normal;word-spacing:normal;text-transform:none;writing-mode:lr-tb;direction:ltr;text-orientation:mixed;dominant-baseline:auto;baseline-shift:baseline;text-anchor:start;white-space:normal;shape-padding:0;clip-rule:nonzero;display:inline;overflow:visible;visibility:visible;opacity:1;isolation:auto;mix-blend-mode:normal;color-interpolation:sRGB;color-interpolation-filters:linearRGB;solid-color:#000000;solid-opacity:1;vector-effect:none;fill:#000000;fill-opacity:1;fill-rule:evenodd;stroke:#ffffff;stroke-width:1.05833328;stroke-linecap:butt;stroke-linejoin:bevel;stroke-miterlimit:4;stroke-dasharray:none;stroke-dashoffset:0;stroke-opacity:1;paint-order:markers stroke fill;color-rendering:auto;image-rendering:auto;shape-rendering:auto;text-rendering:auto;enable-background:accumulate"
       d="m 84.908541,4.6199864 -1.308447,1.308447 1.322398,1.3224 1.212853,1.2128462 v 7.5545784 l 1.32239,1.3224 0.92553,0.926042 5.29013,-5.1e-5 0.92604,-0.926044 V 9.7860276 l 0.79478,-0.794784 v 0.0155 l 1.3224,1.3224004 1.32292,4.5e-4 v 6.6151 l 1.32241,1.3224 h 1.851045 v -7.937488 l 2.6448,-5.55e-4 V 8.4774836 l -1.32188,-1.3223992 -5.497345,1.06e-4 -1.21285,-1.212846 -1.32395,-1.3224 -2.80707,2.80448 -0.26923,0.65629 v 7.0119766 l -2.11616,5.2e-5 V 9.4031536 l -0.27182,-0.654223 -2.80655,-2.8065472 z m -49.044545,2.535197 v 8.8630246 l 1.3224,1.3224 0.925525,0.926041 6.21564,-5.29e-4 v -1.851565 l -1.321883,-1.3224 -3.968233,5.29e-4 V 8.4775826 L 37.715562,7.1551834 Z m 10.184391,-5.3e-4 -0.925525,0.925526 V 16.01768 c 0.44056,0.440959 0.88151,0.881749 1.3224,1.322398 l 0.925525,0.926042 5.292185,5.56e-4 0.925523,-0.926042 V 9.4031336 L 52.662972,8.4776096 C 52.222489,8.0365684 51.78146,7.5958494 51.340572,7.1552094 Z m 21.167186,5.56e-4 -0.925526,0.925525 v 7.9375006 l 1.322401,1.322399 0.925523,0.926042 5.293212,1e-6 0.871265,-0.615467 1.323951,-3.703133 -0.849561,-0.849561 0.849561,-0.302824 L 74.702448,9.0925586 73.38005,7.7686084 72.507234,7.1552094 Z m 10.58436,0 -0.925523,0.925525 v 7.9375006 c 0.440568,0.440969 0.880991,0.881759 1.321882,1.322399 l 0.926041,0.926043 5.29218,2e-6 0.925522,-0.926043 V 9.4031566 L 84.414513,8.4776326 C 83.974032,8.0365824 83.533004,7.5958734 83.092113,7.1552334 Z m -19.098052,0.05271 -3.704683,1.3224002 -0.6134,0.872814 v 7.5411424 l 1.322399,1.3224 h 1.851051 v -0.926021 -1.720824 h 4.764049 v 1.324466 l 1.322401,1.3224 h 1.851049 v -0.926042 -2.64635 -3.96875 l -0.61495,-0.8712634 -1.322401,-1.323951 -3.703131,-1.3224002 -0.303342,0.849043 z m 1.898591,3.0861166 1.720825,0.612883 v 1.539441 h -4.764049 v -1.068669 z m -12.304161,0.03457 2.118735,5.56e-4 v 4.763534 l -2.118735,-5.56e-4 z m 21.167188,5.56e-4 h 2.863385 l 0.613915,1.720309 -1.086239,3.043225 h -2.391061 z m 10.58436,0 2.118731,2e-6 v 4.763534 l -2.118731,-2e-6 z"
       id="path1969-2-3-6-7-5-4-4"
       sodipodi:nodetypes="ccccccccccccccccccccccccccccccccccccccccccccccccccccccccccccccccccccccccccccccccccccccccccccccccccccccccccccccccccccccccc" />
    <path
       inkscape:connector-curvature="0"
       style="color:#000000;font-style:normal;font-variant:normal;font-weight:normal;font-stretch:normal;font-size:medium;line-height:normal;font-family:sans-serif;font-variant-ligatures:normal;font-variant-position:normal;font-variant-caps:normal;font-variant-numeric:normal;font-variant-alternates:normal;font-feature-settings:normal;text-indent:0;text-align:start;text-decoration:none;text-decoration-line:none;text-decoration-style:solid;text-decoration-color:#000000;letter-spacing:normal;word-spacing:normal;text-transform:none;writing-mode:lr-tb;direction:ltr;text-orientation:mixed;dominant-baseline:auto;baseline-shift:baseline;text-anchor:start;white-space:normal;shape-padding:0;clip-rule:nonzero;display:inline;overflow:visible;visibility:visible;opacity:1;isolation:auto;mix-blend-mode:normal;color-interpolation:sRGB;color-interpolation-filters:linearRGB;solid-color:#000000;solid-opacity:1;vector-effect:none;fill:#ffffff;fill-opacity:1;fill-rule:evenodd;stroke:#000000;stroke-width:0.52916682;stroke-linecap:butt;stroke-linejoin:bevel;stroke-miterlimit:4;stroke-dasharray:none;stroke-dashoffset:0;stroke-opacity:1;paint-order:markers stroke fill;color-rendering:auto;image-rendering:auto;shape-rendering:auto;text-rendering:auto;enable-background:accumulate"
       d="m 86.230425,5.9423904 -1.308449,1.308451 2.535249,2.5352392 v 7.5545814 l 0.92552,0.92604 5.29012,-5.1e-5 0.92605,-0.926042 V 9.7860296 l 2.53472,-2.5352412 -1.30844,-1.30845 -2.80655,2.8065512 -0.2713,0.654219 v 7.0119704 l -3.43856,5.3e-5 V 9.4031616 l -0.27182,-0.654221 z M 37.185878,8.4775806 v 8.8630314 l 0.92552,0.926039 6.215646,-5.29e-4 v -1.851569 l -5.290116,5.29e-4 V 8.4775806 Z m 10.184391,-5.29e-4 -0.925525,0.92553 v 7.9375004 l 0.925525,0.92604 5.292185,5.55e-4 0.925525,-0.92604 V 9.4031366 l -0.925525,-0.92553 z m 21.167186,5.56e-4 -0.925523,0.92553 v 7.9375004 l 0.925523,0.92604 h 5.293212 l 0.871265,-0.615461 1.323951,-3.703139 -1.61489,-0.57619 1.61489,-0.57619 -1.323951,-3.7031404 -0.871265,-0.61495 z m 10.58436,0 -0.926039,0.92553 v 7.9375004 l 0.926039,0.92604 5.29218,3e-6 0.92553,-0.926041 V 9.4031396 l -0.92553,-0.92553 z m 17.59428,-5e-5 v 1.8515704 l 2.64532,4.5e-4 v 7.9375 h 1.851055 v -7.937467 l 2.6448,-5.55e-4 V 8.4774856 Z m -36.69233,0.05275 -3.703137,1.32396 -0.61495,0.8712604 v 3.96875 2.64635 0.92604 h 1.851051 V 17.34065 15.61982 h 6.086453 v 1.72083 0.92604 h 1.851046 V 17.34065 14.6943 10.72555 l -0.614947,-0.8712614 -3.703134,-1.32396 -0.576191,1.6148904 z m 0.576191,1.7637204 3.043226,1.08366 v 2.39055 h -6.086453 v -2.39055 z m -12.304161,0.03453 3.441133,5.55e-4 v 6.085931 l -3.441133,-5.56e-4 z m 21.167183,5.55e-4 h 3.715533 l 1.084173,3.04271 -1.084173,3.043221 h -3.715533 z m 10.584365,0 3.440613,2e-6 v 6.08593 l -3.440613,-10e-7 z"
       id="path1969-2-3-6-4-4-9-3"
       sodipodi:nodetypes="cccccccccccccccccccccccccccccccccccccccccccccccccccccccccccccccccccccccccccccccccccccccccccccccccccccccccc" />
    <path
       style="color:#000000;font-style:normal;font-variant:normal;font-weight:normal;font-stretch:normal;font-size:medium;line-height:normal;font-family:sans-serif;font-variant-ligatures:normal;font-variant-position:normal;font-variant-caps:normal;font-variant-numeric:normal;font-variant-alternates:normal;font-feature-settings:normal;text-indent:0;text-align:start;text-decoration:none;text-decoration-line:none;text-decoration-style:solid;text-decoration-color:#000000;letter-spacing:normal;word-spacing:normal;text-transform:none;writing-mode:lr-tb;direction:ltr;text-orientation:mixed;dominant-baseline:auto;baseline-shift:baseline;text-anchor:start;white-space:normal;shape-padding:0;clip-rule:nonzero;display:inline;overflow:visible;visibility:visible;opacity:1;isolation:auto;mix-blend-mode:normal;color-interpolation:sRGB;color-interpolation-filters:linearRGB;solid-color:#000000;solid-opacity:1;vector-effect:none;fill:#ffffff;fill-opacity:1;fill-rule:evenodd;stroke:#000000;stroke-width:1.05833328;stroke-linecap:butt;stroke-linejoin:bevel;stroke-miterlimit:4;stroke-dasharray:none;stroke-dashoffset:0;stroke-opacity:1;paint-order:markers stroke fill;color-rendering:auto;image-rendering:auto;shape-rendering:auto;text-rendering:auto;enable-background:accumulate"
       d="m 92.719957,-44.351704 -1.308446,1.308447 1.322398,1.3224 1.212847,1.212846 v 7.554578 l 1.322398,1.3224 0.925527,0.926041 h 7.937499 l 0.92604,-0.926041 v -7.554578 l 0.79479,-0.794783 v 0.0155 l 1.3224,1.322399 h 2.64635 v 6.6151 l 1.3224,1.3224 h 1.85105 v -7.9375 h 3.96875 v -1.851566 l -1.32189,-1.3224 h -8.14472 l -1.21284,-1.212846 -1.32396,-1.3224 -2.80706,2.80448 -0.26923,0.656291 v 7.011975 h -4.763538 v -5.689572 l -0.271817,-0.654224 -2.80655,-2.806547 z m -59.627367,2.535246 v 8.863025 l 1.3224,1.3224 0.925524,0.926041 h 8.863026 v -1.851566 l -1.321883,-1.3224 H 36.26604 v -6.6151 l -1.321883,-1.3224 z m 12.831774,0 -0.925524,0.925525 v 7.9375 c 0.440559,0.44096 0.881509,0.88175 1.3224,1.3224 l 0.925524,0.926041 h 7.9375 l 0.925526,-0.926041 v -7.9375 l -0.925526,-0.925525 c -0.440484,-0.44104 -0.881511,-0.88176 -1.3224,-1.3224 z m 23.812499,0 -0.925523,0.925525 v 7.9375 l 1.322399,1.3224 0.925526,0.926041 h 7.938015 l 0.871264,-0.615466 1.323953,-3.703133 -0.849563,-0.849561 0.849563,-0.302823 -1.323953,-3.703133 -1.322398,-1.323951 -0.872815,-0.613399 z m 13.229167,0 -0.925523,0.925525 v 7.9375 c 0.440569,0.44097 0.88099,0.88176 1.321882,1.3224 l 0.926042,0.926041 h 7.9375 l 0.925526,-0.926041 v -7.9375 l -0.925526,-0.925525 c -0.440482,-0.44105 -0.881511,-0.88176 -1.322401,-1.3224 z m -21.742857,0.05271 -3.704684,1.3224 -0.613399,0.872815 v 7.541141 l 1.322399,1.3224 h 1.851051 v -0.926041 -1.720825 h 4.76405 v 1.324466 l 1.322399,1.3224 h 1.851051 v -0.926041 -2.64635 -3.96875 l -0.614949,-0.871265 -1.322401,-1.32395 -3.703132,-1.3224 -0.303342,0.849044 z m 1.898592,3.086116 1.720826,0.612883 v 1.539441 H 60.07854 v -1.068669 z m -14.949475,0.03514 h 4.76405 v 4.763534 h -4.76405 z m 23.8125,0 h 5.508191 l 0.613916,1.720309 -1.08624,3.043225 H 71.98479 Z m 13.229167,0 h 4.76405 v 4.763534 h -4.76405 z"
       id="path1969-2-3-6-7-5"
       inkscape:connector-curvature="0" />
    <path
       inkscape:connector-curvature="0"
       style="color:#000000;font-style:normal;font-variant:normal;font-weight:normal;font-stretch:normal;font-size:medium;line-height:normal;font-family:sans-serif;font-variant-ligatures:normal;font-variant-position:normal;font-variant-caps:normal;font-variant-numeric:normal;font-variant-alternates:normal;font-feature-settings:normal;text-indent:0;text-align:start;text-decoration:none;text-decoration-line:none;text-decoration-style:solid;text-decoration-color:#000000;letter-spacing:normal;word-spacing:normal;text-transform:none;writing-mode:lr-tb;direction:ltr;text-orientation:mixed;dominant-baseline:auto;baseline-shift:baseline;text-anchor:start;white-space:normal;shape-padding:0;clip-rule:nonzero;display:inline;overflow:visible;visibility:visible;opacity:1;isolation:auto;mix-blend-mode:normal;color-interpolation:sRGB;color-interpolation-filters:linearRGB;solid-color:#000000;solid-opacity:1;vector-effect:none;fill:#000000;fill-opacity:1;fill-rule:evenodd;stroke:#f7ffff;stroke-width:0.5291667;stroke-linecap:butt;stroke-linejoin:bevel;stroke-miterlimit:4;stroke-dasharray:none;stroke-dashoffset:0;stroke-opacity:1;paint-order:markers stroke fill;color-rendering:auto;image-rendering:auto;shape-rendering:auto;text-rendering:auto;enable-background:accumulate"
       d="m 94.04184,-43.0293 -1.308447,1.30845 2.535246,2.53524 v 7.55458 l 0.925525,0.92604 h 7.937496 l 0.92605,-0.92604 v -7.55458 l 2.53472,-2.53524 -1.30844,-1.30845 -2.80655,2.80655 -0.2713,0.65422 v 7.01197 h -6.085934 v -7.01197 l -0.271817,-0.65422 z m -59.627367,2.53524 v 8.86303 l 0.925519,0.92604 h 8.863031 v -1.85157 h -7.9375 v -7.9375 z m 12.831774,0 -0.925524,0.92553 v 7.9375 l 0.925524,0.92604 h 7.9375 l 0.925526,-0.92604 v -7.9375 l -0.925526,-0.92553 z m 23.812501,0 -0.925526,0.92553 v 7.9375 l 0.925526,0.92604 h 7.938016 l 0.871265,-0.61546 1.323951,-3.70314 -1.61489,-0.57619 1.61489,-0.57619 -1.323951,-3.70314 -0.871265,-0.61495 z m 13.229166,0 -0.926041,0.92553 v 7.9375 l 0.926041,0.92604 h 7.9375 l 0.925526,-0.92604 v -7.9375 l -0.925526,-0.92553 z m 22.886976,0 v 1.85157 h 3.96875 v 7.9375 h 1.85105 v -7.9375 h 3.96875 v -1.85157 z m -44.629833,0.0527 -3.703136,1.32396 -0.61495,0.87126 v 3.96875 2.64635 0.92604 h 1.851052 v -0.92604 -1.72083 h 6.086449 v 1.72083 0.92604 h 1.851051 v -0.92604 -2.64635 -3.96875 l -0.614949,-0.87126 -3.703135,-1.32396 -0.576191,1.61489 z m 0.576191,1.76372 3.043224,1.08366 v 2.39055 h -6.086449 v -2.39055 z m -14.949475,0.0351 h 6.086448 v 6.08593 h -6.086448 z m 23.8125,0 h 6.360335 l 1.084173,3.04271 -1.084173,3.04322 h -6.360335 z m 13.229167,0 h 6.085933 v 6.08593 H 85.21344 Z"
       id="path1969-2-3-6-4-4" />
    <path
       inkscape:connector-curvature="0"
       style="color:#000000;font-style:normal;font-variant:normal;font-weight:normal;font-stretch:normal;font-size:medium;line-height:normal;font-family:sans-serif;font-variant-ligatures:normal;font-variant-position:normal;font-variant-caps:normal;font-variant-numeric:normal;font-variant-alternates:normal;font-feature-settings:normal;text-indent:0;text-align:start;text-decoration:none;text-decoration-line:none;text-decoration-style:solid;text-decoration-color:#000000;letter-spacing:normal;word-spacing:normal;text-transform:none;writing-mode:lr-tb;direction:ltr;text-orientation:mixed;dominant-baseline:auto;baseline-shift:baseline;text-anchor:start;white-space:normal;shape-padding:0;clip-rule:nonzero;display:inline;overflow:visible;visibility:visible;opacity:1;isolation:auto;mix-blend-mode:normal;color-interpolation:sRGB;color-interpolation-filters:linearRGB;solid-color:#000000;solid-opacity:1;vector-effect:none;fill:#ffffff;fill-opacity:1;fill-rule:evenodd;stroke:#000000;stroke-width:0.52916682;stroke-linecap:butt;stroke-linejoin:bevel;stroke-miterlimit:4;stroke-dasharray:none;stroke-dashoffset:0;stroke-opacity:1;paint-order:markers stroke fill;color-rendering:auto;image-rendering:auto;shape-rendering:auto;text-rendering:auto;enable-background:accumulate"
       d="m 48.537637,29.334885 -1.308449,1.308451 2.535248,2.535239 v 7.554581 l 0.92552,0.92604 5.290122,-5.1e-5 0.926049,-0.926042 v -7.554579 l 2.534719,-2.535241 -1.308438,-1.30845 -2.806552,2.806551 -0.271299,0.654219 v 7.01197 l -3.438559,5.3e-5 v -7.01197 l -0.271822,-0.654221 z m -49.04454813,2.53519 v 8.863032 l 0.92552,0.926038 6.21564633,-5.29e-4 v -1.851569 l -5.2901163,5.29e-4 v -7.937501 z m 10.18439133,-5.29e-4 -0.925524,0.92553 v 7.9375 l 0.925524,0.92604 5.2921848,5.56e-4 0.925526,-0.92604 v -7.937501 l -0.925526,-0.92553 z m 21.1671868,5.55e-4 -0.925524,0.92553 v 7.937501 l 0.925524,0.92604 h 5.293211 l 0.871265,-0.615461 1.323952,-3.703139 -1.61489,-0.57619 1.61489,-0.57619 -1.323952,-3.703141 -0.871265,-0.61495 z m 10.584359,0 -0.926039,0.92553 v 7.937501 l 0.926039,0.92604 5.29218,3e-6 0.925531,-0.926041 v -7.9375 l -0.925531,-0.92553 z m 17.594281,-5e-5 v 1.851571 l 2.645321,4.5e-4 v 7.9375 h 1.851054 v -7.937467 l 2.6448,-5.55e-4 v -1.851571 z m -36.69233,0.05275 -3.703137,1.32396 -0.61495,0.871261 v 3.96875 2.64635 0.92604 h 1.851051 v -0.926018 -1.72083 h 6.086452 v 1.72083 0.92604 h 1.851047 v -0.92604 -2.64635 -3.96875 l -0.614948,-0.871261 -3.703133,-1.32396 -0.576191,1.61489 z m 0.576191,1.763721 3.043225,1.08366 v 2.39055 h -6.086452 v -2.39055 z m -12.304162,0.03453 3.441133,5.55e-4 v 6.085931 l -3.441133,-5.55e-4 z m 21.167184,5.55e-4 h 3.715533 l 1.084172,3.04271 -1.084172,3.043221 H 31.77019 Z m 10.584365,0 3.440612,2e-6 v 6.08593 l -3.440612,-10e-7 z"
       id="path1969-2-3-6-4-4-9-3-0"
       sodipodi:nodetypes="cccccccccccccccccccccccccccccccccccccccccccccccccccccccccccccccccccccccccccccccccccccccccccccccccccccccccc" />
  </g>
</svg>
